Coordinates
version=1
nRows=19
nColumns=24
inDegrees=yes

Units are S.I. units (second, meters, Newtons, ...)
If the header above contains a line with 'inDegrees', this indicates whether rotational values are in degrees (yes) or radians (no).

endheader
time	pelvis_tilt	pelvis_list	pelvis_rotation	pelvis_tx	pelvis_ty	pelvis_tz	hip_flexion_r	hip_adduction_r	hip_rotation_r	knee_angle_r	ankle_angle_r	subtalar_angle_r	mtp_angle_r	hip_flexion_l	hip_adduction_l	hip_rotation_l	knee_angle_l	ankle_angle_l	subtalar_angle_l	mtp_angle_l	lumbar_extension	lumbar_bending	lumbar_rotation
      0.00000000	      9.74743326	      2.39728322	      1.37672012	     -0.76926689	      0.74258275	     -0.31994256	     24.48459315	     -4.66782238	     -9.19208591	    -69.13950398	     -0.79938378	    -14.38707242	      0.00000000	     -5.39418554	      3.15380717	     -9.43134125	    -14.67477041	     14.21281059	     -4.41766096	      0.00000000	      0.00000000	      0.00000000	      0.00000000
      0.00666667	      9.68905398	      2.51797333	      1.70428865	     -0.76199439	      0.74228216	     -0.32022353	     24.98927248	     -4.95515428	     -9.58997994	    -67.50433778	     -0.26420097	    -14.76386636	      0.00000000	     -6.04391637	      3.25900566	     -9.20819925	    -14.48769784	     14.60968385	     -4.37083207	      0.00000000	      0.00000000	      0.00000000	      0.00000000
      0.01333333	      9.91493391	      2.55307453	      2.18899312	     -0.75479858	      0.74222002	     -0.32062676	     25.01512669	     -5.23925410	    -10.26797808	    -65.59614417	      0.18853972	    -15.15536573	      0.00000000	     -6.96019078	      3.22989226	     -8.76778556	    -14.38029586	     15.03854649	     -4.34493146	      0.00000000	      0.00000000	      0.00000000	      0.00000000
      0.02000000	      9.83071318	      2.67135347	      2.38096846	     -0.74759984	      0.74171838	     -0.32070091	     25.43137399	     -5.43132177	    -10.53895403	    -63.62830876	      0.72728142	    -15.43886838	      0.00000000	     -7.58824530	      3.34454481	     -8.56217470	    -14.19522506	     15.43007677	     -4.35598086	      0.00000000	      0.00000000	      0.00000000	      0.00000000
      0.02666667	      9.80381887	      2.76451592	      2.62666740	     -0.74046818	      0.74122192	     -0.32076900	     25.68334544	     -5.62054938	    -10.90741726	    -61.47502275	      1.20641583	    -15.58414587	      0.00000000	     -8.21574758	      3.40259464	     -8.30142234	    -14.11491761	     15.82444307	     -4.41030133	      0.00000000	      0.00000000	      0.00000000	      0.00000000
      0.03333333	      9.80974233	      2.82129827	      2.90435661	     -0.73339591	      0.74069893	     -0.32081378	     25.80750776	     -5.75237910	    -11.30661749	    -59.13265223	      1.71984694	    -15.55437840	      0.00000000	     -8.85284065	      3.40177949	     -7.98330539	    -14.08804177	     16.21953793	     -4.50739752	      0.00000000	      0.00000000	      0.00000000	      0.00000000
      0.04000000	      9.66437994	      2.97198100	      2.99116265	     -0.72630604	      0.73988387	     -0.32068887	     26.13976341	     -5.92027590	    -11.50482436	    -56.77395889	      2.11831645	    -15.45044198	      0.00000000	     -9.33472293	      3.54201909	     -7.87652179	    -14.03984678	     16.56630729	     -4.59648947	      0.00000000	      0.00000000	      0.00000000	      0.00000000
      0.04666667	      9.74585709	      2.96461229	      3.28903653	     -0.71926460	      0.73932924	     -0.32068716	     26.00846634	     -5.98682769	    -12.01288173	    -54.12441220	      2.92062865	    -14.71011265	      0.00000000	    -10.01882017	      3.45073607	     -7.47746936	    -14.07526635	     16.94007206	     -4.79233912	      0.00000000	      0.00000000	      0.00000000	      0.00000000
      0.05333333	      9.56198547	      3.01272456	      3.36479779	     -0.71221649	      0.73839733	     -0.32044373	     26.21143445	     -5.98367689	    -12.22038969	    -51.42884578	      3.51745510	    -14.10616820	      0.00000000	    -10.38102811	      3.46446849	     -7.38192937	    -14.17097968	     17.27741521	     -5.00891970	      0.00000000	      0.00000000	      0.00000000	      0.00000000
      0.06000000	      9.43529580	      3.12568438	      3.45812588	     -0.70520291	      0.73743954	     -0.32024947	     26.30906381	     -6.07930211	    -12.47104155	    -48.68121538	      4.44561663	    -12.80918476	      0.00000000	    -10.83270595	      3.55720751	     -7.19588251	    -14.23233642	     17.59575927	     -5.21226398	      0.00000000	      0.00000000	      0.00000000	      0.00000000
      0.06666667	      9.08874501	      3.19264543	      3.43290237	     -0.69816082	      0.73624749	     -0.31974775	     26.60775394	     -5.93385102	    -12.39436303	    -45.77803512	      4.84261914	    -12.19265748	      0.00000000	    -11.02036248	      3.62076761	     -7.09902116	    -14.34528448	     17.91246966	     -5.37222397	      0.00000000	      0.00000000	      0.00000000	      0.00000000
      0.07333333	      8.87093360	      3.20879655	      3.56095758	     -0.69111406	      0.73511654	     -0.31951792	     26.66791830	     -5.93489061	    -12.75594300	    -42.84009370	      5.90769646	    -10.33931752	      0.00000000	    -11.23401258	      3.57797977	     -7.04359199	    -14.66135179	     18.27412517	     -5.58409155	      0.00000000	      0.00000000	      0.00000000	      0.00000000
      0.08000000	      8.50670692	      3.36069235	      3.46951358	     -0.68415130	      0.73376573	     -0.31889897	     26.92565532	     -5.80761516	    -12.50933558	    -39.85010971	      6.18545664	     -9.62225254	      0.00000000	    -11.36301960	      3.74868853	     -6.99768039	    -14.84304623	     18.55464369	     -5.73229572	      0.00000000	      0.00000000	      0.00000000	      0.00000000
      0.08666667	      8.11377900	      3.42763503	      3.43925008	     -0.67709064	      0.73238341	     -0.31836782	     27.10954189	     -5.60914200	    -12.32099170	    -36.75789323	      6.55514557	     -8.65694525	      0.00000000	    -11.41581310	      3.80911024	     -7.03457240	    -15.11627974	     18.84311154	     -5.95024101	      0.00000000	      0.00000000	      0.00000000	      0.00000000
      0.09333333	      7.83728445	      3.22820630	      3.61172188	     -0.66961999	      0.73110685	     -0.31808844	     26.99413938	     -5.39532087	    -12.87735783	    -33.67249169	      7.96554917	     -5.72214301	      0.00000000	    -11.52937172	      3.50358213	     -7.05409719	    -15.55776113	     19.25489815	     -6.11849156	      0.00000000	      0.00000000	      0.00000000	      0.00000000
      0.10000000	      7.50367820	      3.21790855	      3.60247964	     -0.66227289	      0.72969413	     -0.31753824	     26.99883141	     -5.15444335	    -12.81907278	    -30.63335472	      8.57215998	     -4.08631819	      0.00000000	    -11.64022737	      3.45894783	     -7.09945568	    -15.88771723	     19.53179122	     -6.33653640	      0.00000000	      0.00000000	      0.00000000	      0.00000000
      0.10666667	      7.13875927	      3.17272686	      3.60653996	     -0.65483335	      0.72821975	     -0.31695877	     26.99036472	     -4.85540224	    -12.68327945	    -27.63990358	      9.00218506	     -2.68924275	      0.00000000	    -11.69729006	      3.36742188	     -7.14028482	    -16.26818173	     19.79382668	     -6.55179833	      0.00000000	      0.00000000	      0.00000000	      0.00000000
      0.11333333	      6.79772638	      3.16114114	      3.60876026	     -0.64726907	      0.72671862	     -0.31632986	     26.94248885	     -4.58746196	    -12.49461316	    -24.78311886	      9.37833725	     -1.40330576	      0.00000000	    -11.77866009	      3.29716175	     -7.17575476	    -16.67647653	     20.03455730	     -6.75248436	      0.00000000	      0.00000000	      0.00000000	      0.00000000
      0.12000000	      6.55354027	      3.15636438	      3.65791651	     -0.63960682	      0.72525304	     -0.31586130	     26.79361285	     -4.39022034	    -12.37547414	    -22.15666673	      9.77923552	     -0.07197581	      0.00000000	    -11.98205790	      3.22886117	     -7.11062308	    -17.07377872	     20.27033534	     -6.86476185	      0.00000000	      0.00000000	      0.00000000	      0.00000000
